<svg width="23" height="23" viewBox="0 0 23 23" fill="none" xmlns="http://www.w3.org/2000/svg">
<path fill-rule="evenodd" clip-rule="evenodd" d="M22.9387 11.7096C22.9387 10.9135 22.8672 10.148 22.7345 9.41309H12.1602V13.7561H18.2027C17.9424 15.1596 17.1514 16.3487 15.9622 17.1448V19.962H19.5908C21.7139 18.0073 22.9387 15.129 22.9387 11.7096Z" fill="#4285F4"/>
<path fill-rule="evenodd" clip-rule="evenodd" d="M12.1565 22.6823C15.1879 22.6823 17.7295 21.6769 19.5871 19.9621L15.9586 17.145C14.9532 17.8187 13.6671 18.2167 12.1565 18.2167C9.23218 18.2167 6.757 16.2417 5.8741 13.5879H2.12305V16.4969C3.9705 20.1663 7.76749 22.6823 12.1565 22.6823Z" fill="#34A853"/>
<path fill-rule="evenodd" clip-rule="evenodd" d="M5.8769 13.5886C5.65235 12.9149 5.52476 12.1953 5.52476 11.4553C5.52476 10.7153 5.65235 9.99572 5.8769 9.32206V6.41309H2.12585C1.36544 7.92882 0.931641 9.64358 0.931641 11.4553C0.931641 13.267 1.36544 14.9818 2.12585 16.4975L5.8769 13.5886Z" fill="#FBBC05"/>
<path fill-rule="evenodd" clip-rule="evenodd" d="M12.1565 4.69405C13.8049 4.69405 15.2849 5.26054 16.4485 6.37309L19.6688 3.1528C17.7244 1.34107 15.1828 0.228516 12.1565 0.228516C7.76749 0.228516 3.9705 2.74453 2.12305 6.41392L5.8741 9.3229C6.757 6.6691 9.23218 4.69405 12.1565 4.69405Z" fill="#EA4335"/>
</svg>
