<svg width="24" height="25" viewBox="0 0 24 25" fill="none" xmlns="http://www.w3.org/2000/svg">
<path d="M11.969 2.91084C15.0566 2.91084 15.4776 2.91084 16.7407 2.91084C17.8635 2.91084 18.4248 3.19153 18.8459 3.33188C19.4073 3.61257 19.8283 3.75291 20.2493 4.17395C20.6704 4.59498 20.951 5.01602 21.0914 5.5774C21.2317 5.99844 21.3721 6.55982 21.5124 7.68258C21.5124 8.94568 21.5124 9.22637 21.5124 12.4543C21.5124 15.6823 21.5124 15.9629 21.5124 17.226C21.5124 18.3488 21.2317 18.9102 21.0914 19.3312C20.8107 19.8926 20.6704 20.3136 20.2493 20.7347C19.8283 21.1557 19.4073 21.4364 18.8459 21.5767C18.4248 21.7171 17.8635 21.8574 16.7407 21.9978C15.4776 21.9978 15.1969 21.9978 11.969 21.9978C8.74102 21.9978 8.46033 21.9978 7.19723 21.9978C6.07446 21.9978 5.51308 21.7171 5.09205 21.5767C4.53067 21.2961 4.10963 21.1557 3.6886 20.7347C3.26756 20.3136 2.98687 19.8926 2.84653 19.3312C2.70618 18.9102 2.56583 18.3488 2.42549 17.226C2.42549 15.9629 2.42549 15.6823 2.42549 12.4543C2.42549 9.22637 2.42549 8.94568 2.42549 7.68258C2.42549 6.55982 2.70618 5.99844 2.84653 5.5774C3.12722 5.01602 3.26756 4.59498 3.6886 4.17395C4.10963 3.75291 4.53067 3.47222 5.09205 3.33188C5.51308 3.19153 6.07446 3.05119 7.19723 2.91084C8.46033 2.91084 8.88137 2.91084 11.969 2.91084ZM11.969 0.805664C8.74102 0.805664 8.46033 0.805664 7.19723 0.805664C5.93412 0.805664 5.09205 1.08636 4.39032 1.36705C3.6886 1.64774 2.98687 2.06877 2.28515 2.7705C1.58342 3.47222 1.30273 4.0336 0.881694 4.87567C0.601004 5.5774 0.460658 6.41947 0.320312 7.68258C0.320312 8.94568 0.320312 9.36672 0.320312 12.4543C0.320312 15.6823 0.320312 15.9629 0.320312 17.226C0.320312 18.4892 0.601004 19.3312 0.881694 20.0329C1.16238 20.7347 1.58342 21.4364 2.28515 22.1381C2.98687 22.8399 3.54825 23.1205 4.39032 23.5416C5.09205 23.8223 5.93412 23.9626 7.19723 24.103C8.46033 24.103 8.88137 24.103 11.969 24.103C15.0566 24.103 15.4776 24.103 16.7407 24.103C18.0038 24.103 18.8459 23.8223 19.5476 23.5416C20.2493 23.2609 20.951 22.8399 21.6528 22.1381C22.3545 21.4364 22.6352 20.875 23.0562 20.0329C23.3369 19.3312 23.4773 18.4892 23.6176 17.226C23.6176 15.9629 23.6176 15.5419 23.6176 12.4543C23.6176 9.36672 23.6176 8.94568 23.6176 7.68258C23.6176 6.41947 23.3369 5.5774 23.0562 4.87567C22.7755 4.17395 22.3545 3.47222 21.6528 2.7705C20.951 2.06877 20.3897 1.78808 19.5476 1.36705C18.8459 1.08636 18.0038 0.946009 16.7407 0.805664C15.4776 0.805664 15.1969 0.805664 11.969 0.805664Z" fill="white"/>
<path d="M11.969 6.41947C8.60068 6.41947 5.93412 9.08603 5.93412 12.4543C5.93412 15.8226 8.60068 18.4892 11.969 18.4892C15.3372 18.4892 18.0038 15.8226 18.0038 12.4543C18.0038 9.08603 15.3372 6.41947 11.969 6.41947ZM11.969 16.384C9.86378 16.384 8.0393 14.6998 8.0393 12.4543C8.0393 10.3491 9.72344 8.52465 11.969 8.52465C14.0741 8.52465 15.8986 10.2088 15.8986 12.4543C15.8986 14.5595 14.0741 16.384 11.969 16.384Z" fill="white"/>
<path d="M18.1441 7.68258C18.9193 7.68258 19.5476 7.05423 19.5476 6.27913C19.5476 5.50402 18.9193 4.87567 18.1441 4.87567C17.369 4.87567 16.7407 5.50402 16.7407 6.27913C16.7407 7.05423 17.369 7.68258 18.1441 7.68258Z" fill="white"/>
</svg>
