<svg width="71" height="71" viewBox="0 0 71 71" fill="none" xmlns="http://www.w3.org/2000/svg">
<g filter="url(#filter0_d_1702_798)">
<rect x="3" y="3" width="63" height="63" rx="31.5" fill="white"/>
<path d="M55.916 45.877L53.9004 54.3594C53.6484 55.6191 52.6406 56.459 51.3809 56.459C30.2168 56.375 13 39.1582 13 17.9941C13 16.7344 13.7559 15.7266 15.0156 15.4746L23.498 13.459C24.6738 13.207 25.9336 13.8789 26.4375 14.9707L30.3848 24.125C30.8047 25.2168 30.5527 26.4766 29.6289 27.1484L25.0938 30.8438C27.9492 36.6387 32.6523 41.3418 38.5312 44.1973L42.2266 39.6621C42.8984 38.8223 44.1582 38.4863 45.25 38.9062L54.4043 42.8535C55.4961 43.4414 56.168 44.7012 55.916 45.877Z" fill="#1D8F53"/>
</g>
<defs>
<filter id="filter0_d_1702_798" x="0" y="0" width="71" height="71" filterUnits="userSpaceOnUse" color-interpolation-filters="sRGB">
<feFlood flood-opacity="0" result="BackgroundImageFix"/>
<feColorMatrix in="SourceAlpha" type="matrix" values="0 0 0 0 0 0 0 0 0 0 0 0 0 0 0 0 0 0 127 0" result="hardAlpha"/>
<feMorphology radius="2" operator="dilate" in="SourceAlpha" result="effect1_dropShadow_1702_798"/>
<feOffset dx="1" dy="1"/>
<feGaussianBlur stdDeviation="1"/>
<feComposite in2="hardAlpha" operator="out"/>
<feColorMatrix type="matrix" values="0 0 0 0 0 0 0 0 0 0 0 0 0 0 0 0 0 0 0.24 0"/>
<feBlend mode="normal" in2="BackgroundImageFix" result="effect1_dropShadow_1702_798"/>
<feBlend mode="normal" in="SourceGraphic" in2="effect1_dropShadow_1702_798" result="shape"/>
</filter>
</defs>
</svg>
