<svg width="24" height="19" viewBox="0 0 24 19" fill="none" xmlns="http://www.w3.org/2000/svg">
<path d="M23.1544 2.43818C22.3124 2.85922 21.4703 2.99957 20.4879 3.13991C21.4703 2.57853 22.172 1.73646 22.4527 0.613698C21.6106 1.17508 20.6282 1.45577 19.5055 1.73646C18.6634 0.894388 17.4003 0.333008 16.1372 0.333008C13.1899 0.333008 10.9444 3.13991 11.6461 5.94681C7.85682 5.80647 4.48854 3.98198 2.10267 1.17508C0.839564 3.28026 1.54129 5.94681 3.50612 7.35027C2.8044 7.35027 2.10267 7.06958 1.40094 6.78889C1.40094 8.89406 2.94474 10.8589 5.04992 11.4203C4.34819 11.5606 3.64647 11.701 2.94474 11.5606C3.50612 13.3851 5.19026 14.7886 7.29544 14.7886C5.6113 16.0517 3.08509 16.7534 0.699219 16.4727C2.8044 17.7358 5.19026 18.5779 7.71648 18.5779C16.2775 18.5779 21.0493 11.4203 20.7686 4.82405C21.751 4.26267 22.5931 3.4206 23.1544 2.43818Z" fill="white"/>
</svg>
