<svg width="24" height="17" viewBox="0 0 24 17" fill="none" xmlns="http://www.w3.org/2000/svg">
<path d="M22.6614 2.98255C22.3807 2.00013 21.679 1.29841 20.6966 1.01772C19.0125 0.59668 11.8548 0.59668 11.8548 0.59668C11.8548 0.59668 4.8376 0.59668 3.01311 1.01772C2.03069 1.29841 1.32895 2.00013 1.04826 2.98255C0.767574 4.80703 0.767578 8.45601 0.767578 8.45601C0.767578 8.45601 0.767582 12.105 1.18862 13.9295C1.46931 14.9119 2.17103 15.6136 3.15344 15.8943C4.83758 16.3153 11.9952 16.3153 11.9952 16.3153C11.9952 16.3153 19.0124 16.3153 20.8369 15.8943C21.8193 15.6136 22.5211 14.9119 22.8018 13.9295C23.2228 12.105 23.2228 8.45601 23.2228 8.45601C23.2228 8.45601 23.2228 4.80703 22.6614 2.98255ZM9.74966 11.8243V5.08773L15.6442 8.45601L9.74966 11.8243Z" fill="white"/>
</svg>
